# xmcd
#
# Track frame offsets:
#	150
#	11310
#	22779
#	35054
#	51714
#	64076
#	78654
#	92175
#	107333
#	119009
#	139386
#	152962
#
# Disc length: 2299 seconds
#
# Revision: 0
# Processed by: cddbd v1.5.2PL0 Copyright (c) Steve Scherf et al.
# Submitted via: dBpowerAMP V4.0
#
DISCID=a308f90c
DTITLE=Ricky Valance - Sings country
DYEAR=1900
DGENRE=
TTITLE0=Tell laura I love her
TTITLE1=The wonder of you
TTITLE2=Back into country
TTITLE3=For the good times
TTITLE4=Funny familiar forgotten feelings
TTITLE5=You were the one
TTITLE6=Women your love
TTITLE7=And I love you so
TTITLE8=Maybe
TTITLE9=Songs women and wine
TTITLE10=Darling, darling
TTITLE11=An american trilogy
EXTD=
EXTT0=
EXTT1=
EXTT2=
EXTT3=
EXTT4=
EXTT5=
EXTT6=
EXTT7=
EXTT8=
EXTT9=
EXTT10=
EXTT11=
PLAYORDER=
